HIERARCHY
ROOT Joint1
{
	OFFSET 0.000000 0.000000 0.000000
	CHANNELS 6 Xposition Yposition Zposition Xrotation Yrotation Zrotation
	JOINT Joint2
	{
		OFFSET -0.000000 0.000000 1.456275
		CHANNELS 6 Xposition Yposition Zposition Xrotation Yrotation Zrotation
		JOINT Joint3
		{
			OFFSET -0.000000 0.000002 1.471446
			CHANNELS 6 Xposition Yposition Zposition Xrotation Yrotation Zrotation
			JOINT Joint4
			{
				OFFSET 0.625745 0.000000 0.917755
				CHANNELS 6 Xposition Yposition Zposition Xrotation Yrotation Zrotation
				JOINT Joint5
				{
					OFFSET -0.629534 0.000001 0.940221
					CHANNELS 6 Xposition Yposition Zposition Xrotation Yrotation Zrotation
					JOINT Joint6
					{
						OFFSET -0.000001 0.113772 1.960660
						CHANNELS 6 Xposition Yposition Zposition Xrotation Yrotation Zrotation
						JOINT Joint7
						{
							OFFSET -0.669733 -0.113771 0.388340
							CHANNELS 6 Xposition Yposition Zposition Xrotation Yrotation Zrotation
							End Site
							{
								OFFSET 0.005509 0.005509 0.438980
							}
						}
					}
				}
			}
		}
	}
}
MOTION
Frames: 12
Frame Time: 0.041667
0.000000 0.000000 0.000000 -0.000000 1.019410 -33.670463 -0.000000 0.000000 1.456275 -0.000000 46.167216 -0.000001 -0.000000 0.000002 1.471446 -0.000007 -1.133461 -75.928775 0.625745 0.000000 0.917755 -0.000000 9.955277 -0.000001 -0.629533 0.000001 0.940221 -0.000001 1.709742 62.111753 -0.000001 0.113772 1.960661 -88.303889 44.513173 -0.000003 -0.669733 -0.113771 0.388340 0.143736 1.989809 11.587782 
0.000000 0.000000 0.000000 -0.000000 1.019410 -33.640888 -0.000000 0.000000 1.456275 -0.000001 46.087132 -0.000003 -0.000000 0.000002 1.471446 -0.000006 -1.133463 -75.862091 0.625744 0.000000 0.917755 0.000004 10.065157 -0.000001 -0.629534 0.000001 0.940221 -0.000004 1.709740 62.057166 -0.000001 0.113772 1.960660 -88.303882 44.553116 0.000007 -0.669733 -0.113771 0.388340 0.144790 1.991418 11.696091 
0.000000 0.000000 0.000000 -0.000000 1.019410 -33.592093 -0.000000 -0.000000 1.456275 0.000004 45.954998 0.000000 -0.000000 0.000002 1.471446 -0.000005 -1.133467 -75.752071 0.625745 0.000000 0.917755 0.000001 10.246466 0.000002 -0.629534 0.000001 0.940221 -0.000002 1.709734 61.967110 -0.000001 0.113772 1.960660 -88.303882 44.619020 0.000003 -0.669733 -0.113771 0.388340 0.146532 1.994072 11.874804 
0.000000 0.000000 0.000000 -0.000000 1.019410 -33.524481 -0.000000 0.000000 1.456275 -0.000005 45.771905 -0.000000 -0.000001 0.000002 1.471446 -0.000004 -1.133468 -75.599614 0.625744 0.000000 0.917755 -0.000001 10.497698 0.000000 -0.629534 0.000001 0.940220 -0.000000 1.709738 61.842315 -0.000001 0.113772 1.960661 -88.303889 44.710333 -0.000002 -0.669733 -0.113772 0.388340 0.148924 1.997760 12.122449 
0.000000 0.000000 0.000000 -0.000000 1.019410 -33.438455 -0.000000 0.000000 1.456275 -0.000002 45.538930 0.000001 -0.000000 0.000002 1.471446 -0.000004 -1.133468 -75.405616 0.625744 0.000000 0.917755 -0.000002 10.817359 -0.000001 -0.629534 0.000001 0.940221 -0.000000 1.709736 61.683527 -0.000001 0.113772 1.960661 -88.303889 44.826521 -0.000002 -0.669733 -0.113770 0.388340 0.151948 2.002467 12.437541 
0.000000 0.000000 0.000000 -0.000000 1.019410 -33.334410 -0.000000 -0.000000 1.456275 0.000000 45.257178 -0.000003 -0.000000 0.000002 1.471446 -0.000004 -1.133463 -75.171013 0.625745 0.000000 0.917755 0.000000 11.203952 -0.000000 -0.629534 0.000001 0.940221 -0.000001 1.709738 61.491496 -0.000001 0.113772 1.960660 -88.303889 44.967046 0.000001 -0.669733 -0.113771 0.388340 0.155574 2.008180 12.818615 
0.000000 0.000000 0.000000 -0.000000 1.019410 -33.212754 -0.000000 0.000000 1.456275 -0.000003 44.927741 0.000002 -0.000000 0.000002 1.471446 -0.000002 -1.133468 -74.896706 0.625744 0.000000 0.917755 0.000000 11.655977 0.000002 -0.629534 0.000001 0.940221 -0.000002 1.709736 61.266947 -0.000001 0.113772 1.960661 -88.303889 45.131342 0.000002 -0.669733 -0.113771 0.388340 0.159763 2.014893 13.264175 
0.000000 0.000000 0.000000 -0.000000 1.019410 -33.073900 -0.000000 0.000000 1.456275 0.000002 44.551702 -0.000002 -0.000000 0.000002 1.471446 -0.000005 -1.133464 -74.583589 0.625744 0.000000 0.917755 -0.000002 12.171941 0.000001 -0.629534 0.000001 0.940221 -0.000007 1.709738 61.010658 -0.000001 0.113772 1.960660 -88.303889 45.318879 -0.000004 -0.669733 -0.113771 0.388339 0.164485 2.022590 13.772775 
0.000000 0.000000 0.000000 -0.000000 1.019410 -32.918237 -0.000000 -0.000000 1.456275 0.000001 44.130170 -0.000000 -0.000000 0.000002 1.471446 -0.000006 -1.133468 -74.232593 0.625744 0.000000 0.917755 0.000003 12.750339 0.000000 -0.629534 0.000001 0.940221 -0.000002 1.709738 60.723353 -0.000002 0.113772 1.960660 -88.303889 45.529112 -0.000000 -0.669734 -0.113770 0.388340 0.169689 2.031275 14.342917 
0.000000 0.000000 0.000000 -0.000000 1.019410 -32.746167 -0.000000 0.000000 1.456275 -0.000004 43.664211 -0.000005 -0.000000 0.000002 1.471446 -0.000006 -1.133462 -73.844604 0.625745 0.000000 0.917755 0.000002 13.389683 0.000001 -0.629534 0.000001 0.940220 -0.000000 1.709735 60.405776 -0.000001 0.113772 1.960660 -88.303889 45.761499 0.000001 -0.669733 -0.113771 0.388340 0.175347 2.040928 14.973134 
0.000000 0.000000 0.000000 -0.000000 1.019410 -32.558098 -0.000000 0.000000 1.456275 0.000001 43.154932 0.000001 -0.000000 0.000002 1.471446 -0.000004 -1.133462 -73.420558 0.625745 0.000001 0.917755 -0.000005 14.088464 0.000002 -0.629534 0.000001 0.940221 -0.000001 1.709739 60.058659 -0.000001 0.113772 1.960660 -88.303882 46.015486 -0.000000 -0.669734 -0.113770 0.388340 0.181405 2.051554 15.661945 
0.000000 0.000000 0.000000 -0.000000 1.019410 -32.354797 -0.000000 0.000000 1.456275 0.000002 42.604381 -0.000001 -0.000001 0.000002 1.471445 -0.000006 -1.133469 -72.962130 0.625744 0.000000 0.917755 0.000001 14.843890 -0.000000 -0.629534 0.000001 0.940221 -0.000003 1.709739 59.683409 -0.000001 0.113773 1.960660 -88.303889 46.290063 -0.000000 -0.669734 -0.113770 0.388340 0.187812 2.063120 16.406592 
